<svg width="500" height="500" viewBox="0 0 500 500" fill="none" xmlns="http://www.w3.org/2000/svg">
<g clip-path="url(#clip0_158_15)">
<path d="M250 1.5C387.24 1.5 498.5 112.76 498.5 250C498.5 387.24 387.24 498.5 250 498.5C112.76 498.5 1.5 387.24 1.5 250C1.5 112.76 112.76 1.5 250 1.5ZM32.5909 250C32.5909 307.66 55.4964 362.959 96.2686 403.731C137.041 444.504 192.34 467.409 250 467.409C307.66 467.409 362.959 444.504 403.731 403.731C444.504 362.959 467.409 307.66 467.409 250C467.409 192.34 444.504 137.041 403.731 96.2686C362.959 55.4964 307.66 32.5909 250 32.5909C192.34 32.5909 137.041 55.4964 96.2686 96.2686C55.4964 137.041 32.5909 192.34 32.5909 250ZM249.966 293.955C244.113 294.087 238.292 293.049 232.845 290.901C227.399 288.753 222.436 285.538 218.249 281.445C214.062 277.353 210.735 272.465 208.463 267.069C206.19 261.673 205.019 255.877 205.018 250.023C205.016 244.168 206.185 238.372 208.454 232.974C210.723 227.577 214.048 222.688 218.233 218.593C222.418 214.499 227.379 211.281 232.825 209.131C238.27 206.98 244.091 205.938 249.944 206.068C261.429 206.322 272.357 211.062 280.391 219.273C288.424 227.484 292.924 238.513 292.927 250.001C292.93 261.488 288.435 272.52 280.406 280.735C272.377 288.95 261.45 293.695 249.966 293.955Z" fill="white" stroke="black" stroke-width="3"/>
<mask id="path-2-outside-1_158_15" maskUnits="userSpaceOnUse" x="107" y="200" width="298" height="99" fill="black">
<rect fill="white" x="107" y="200" width="298" height="99"/>
<path d="M110.008 296V203.84H144.056C150.627 203.84 156.216 204.907 160.824 207.04C165.432 209.173 168.931 212.16 171.32 216C173.795 219.755 175.032 224.235 175.032 229.44C175.032 234.645 173.795 239.211 171.32 243.136C168.931 246.976 165.432 250.005 160.824 252.224C156.216 254.357 150.627 255.424 144.056 255.424H117.688V246.208H143.672C150.499 246.208 155.661 244.715 159.16 241.728C162.744 238.741 164.536 234.645 164.536 229.44C164.536 224.32 162.787 220.309 159.288 217.408C155.789 214.507 150.584 213.056 143.672 213.056H120.504V296H110.008ZM164.024 296L115 250.304H129.336L179.896 296H164.024ZM351.317 296L315.733 203.84H326.997L360.021 291.392H356.181L389.077 203.84H399.701L364.117 296H351.317Z"/>
</mask>
<path d="M110.008 296V203.84H144.056C150.627 203.84 156.216 204.907 160.824 207.04C165.432 209.173 168.931 212.16 171.32 216C173.795 219.755 175.032 224.235 175.032 229.44C175.032 234.645 173.795 239.211 171.32 243.136C168.931 246.976 165.432 250.005 160.824 252.224C156.216 254.357 150.627 255.424 144.056 255.424H117.688V246.208H143.672C150.499 246.208 155.661 244.715 159.16 241.728C162.744 238.741 164.536 234.645 164.536 229.44C164.536 224.32 162.787 220.309 159.288 217.408C155.789 214.507 150.584 213.056 143.672 213.056H120.504V296H110.008ZM164.024 296L115 250.304H129.336L179.896 296H164.024ZM351.317 296L315.733 203.84H326.997L360.021 291.392H356.181L389.077 203.84H399.701L364.117 296H351.317Z" fill="white"/>
<path d="M110.008 296H107.008V299H110.008V296ZM110.008 203.84V200.84H107.008V203.84H110.008ZM160.824 207.04L162.084 204.318L162.084 204.318L160.824 207.04ZM171.32 216L168.773 217.585L168.794 217.618L168.815 217.651L171.32 216ZM171.32 243.136L168.782 241.536L168.778 241.544L168.773 241.551L171.32 243.136ZM160.824 252.224L162.084 254.946L162.105 254.937L162.125 254.927L160.824 252.224ZM117.688 255.424H114.688V258.424H117.688V255.424ZM117.688 246.208V243.208H114.688V246.208H117.688ZM159.16 241.728L157.239 239.423L157.226 239.435L157.212 239.446L159.16 241.728ZM120.504 213.056V210.056H117.504V213.056H120.504ZM120.504 296V299H123.504V296H120.504ZM164.024 296L161.978 298.194L162.843 299H164.024V296ZM115 250.304V247.304H107.382L112.954 252.498L115 250.304ZM129.336 250.304L131.348 248.078L130.491 247.304H129.336V250.304ZM179.896 296V299H187.689L181.908 293.774L179.896 296ZM113.008 296V203.84H107.008V296H113.008ZM110.008 206.84H144.056V200.84H110.008V206.84ZM144.056 206.84C150.314 206.84 155.449 207.857 159.564 209.762L162.084 204.318C156.983 201.956 150.939 200.84 144.056 200.84V206.84ZM159.564 209.762C163.708 211.681 166.729 214.301 168.773 217.585L173.867 214.415C171.132 210.019 167.156 206.665 162.084 204.318L159.564 209.762ZM168.815 217.651C170.918 220.842 172.032 224.727 172.032 229.44H178.032C178.032 223.743 176.671 218.667 173.825 214.349L168.815 217.651ZM172.032 229.44C172.032 234.15 170.919 238.146 168.782 241.536L173.858 244.736C176.67 240.275 178.032 235.141 178.032 229.44H172.032ZM168.773 241.551C166.722 244.847 163.687 247.516 159.523 249.521L162.125 254.927C167.177 252.495 171.139 249.105 173.867 244.721L168.773 241.551ZM159.564 249.502C155.449 251.407 150.314 252.424 144.056 252.424V258.424C150.939 258.424 156.983 257.308 162.084 254.946L159.564 249.502ZM144.056 252.424H117.688V258.424H144.056V252.424ZM120.688 255.424V246.208H114.688V255.424H120.688ZM117.688 249.208H143.672V243.208H117.688V249.208ZM143.672 249.208C150.877 249.208 156.856 247.639 161.108 244.01L157.212 239.446C154.466 241.79 150.12 243.208 143.672 243.208V249.208ZM161.081 244.033C165.433 240.406 167.536 235.419 167.536 229.44H161.536C161.536 233.871 160.055 237.077 157.239 239.423L161.081 244.033ZM167.536 229.44C167.536 223.554 165.481 218.646 161.203 215.099L157.373 219.717C160.092 221.972 161.536 225.086 161.536 229.44H167.536ZM161.203 215.099C156.948 211.57 150.935 210.056 143.672 210.056V216.056C150.233 216.056 154.631 217.443 157.373 219.717L161.203 215.099ZM143.672 210.056H120.504V216.056H143.672V210.056ZM117.504 213.056V296H123.504V213.056H117.504ZM120.504 293H110.008V299H120.504V293ZM166.07 293.806L117.046 248.109L112.954 252.498L161.978 298.194L166.07 293.806ZM115 253.304H129.336V247.304H115V253.304ZM127.324 252.53L177.884 298.226L181.908 293.774L131.348 248.078L127.324 252.53ZM179.896 293H164.024V299H179.896V293ZM351.317 296L348.518 297.081L349.259 299H351.317V296ZM315.733 203.84V200.84H311.359L312.934 204.921L315.733 203.84ZM326.997 203.84L329.804 202.781L329.072 200.84H326.997V203.84ZM360.021 291.392V294.392H364.359L362.828 290.333L360.021 291.392ZM356.181 291.392L353.373 290.337L351.849 294.392H356.181V291.392ZM389.077 203.84V200.84H386.999L386.269 202.785L389.077 203.84ZM399.701 203.84L402.5 204.921L404.075 200.84H399.701V203.84ZM364.117 296V299H366.175L366.916 297.081L364.117 296ZM354.116 294.919L318.532 202.759L312.934 204.921L348.518 297.081L354.116 294.919ZM315.733 206.84H326.997V200.84H315.733V206.84ZM324.19 204.899L357.214 292.451L362.828 290.333L329.804 202.781L324.19 204.899ZM360.021 288.392H356.181V294.392H360.021V288.392ZM358.989 292.447L391.885 204.895L386.269 202.785L353.373 290.337L358.989 292.447ZM389.077 206.84H399.701V200.84H389.077V206.84ZM396.902 202.759L361.318 294.919L366.916 297.081L402.5 204.921L396.902 202.759ZM364.117 293H351.317V299H364.117V293Z" fill="black" mask="url(#path-2-outside-1_158_15)"/>
</g>
<defs>
<clipPath id="clip0_158_15">
<rect width="500" height="500" fill="white"/>
</clipPath>
</defs>
</svg>
